<svg height="511pt" viewBox="-17 0 511 511.99932" width="511pt" xmlns="http://www.w3.org/2000/svg"><path d="m161.511719.015625c-6.003907-.207031-11.730469 2.898437-14.414063 8.320313-17.226562 34.847656-15.90625 77.410156 3.53125 111.097656l20.652344 35.789062 55.269531-130.027344c-18.691406-14.941406-41.175781-23.644531-65.039062-25.179687zm0 0" fill="#93bf00"/><path d="m330 8.335938c-2.683594-5.421876-8.058594-8.585938-14.402344-8.320313-22.613281 1.449219-44.148437 9.417969-62.285156 23.042969-6.617188 4.980468-7.953125 14.015625-2.984375 20.636718l35.695313 115.789063c2.359374 1.363281 4.9375 2.007813 7.484374 2.007813 5.1875 0 10.226563-2.679688 13.007813-7.5l19.96875-34.554688c19.4375-33.707031 20.753906-76.253906 3.515625-111.101562zm0 0" fill="#81a713"/><path d="m300.496094 101v42.898438c0 8.101562-6.597656 15-15 15h-90c-8.402344 0-15-6.898438-15-15v-42.898438c0-38.699219 19.199218-76.632812 51.597656-98.234375 2.402344-1.800781 5.402344-2.398437 8.402344-2.398437s6 .597656 8.402344 2.398437c32.398437 21.601563 51.597656 59.535156 51.597656 98.234375zm0 0" fill="#a8d32a"/><path d="m300.496094 101v42.898438c0 8.101562-6.597656 15-15 15h-45v-158.53125c3 0 6 .597656 8.402344 2.398437 32.398437 21.601563 51.597656 59.535156 51.597656 98.234375zm0 0" fill="#93bf00"/><path d="m82.207031 123.582031c-5.230469-2.59375-11.5-1.933593-16.101562 1.714844-4.570313 3.660156-6.574219 9.652344-5.15625 15.335937l22.371093 89.457032 67.175782-72.363282zm0 0" fill="#a8d32a"/><path d="m97.570312 392h-67.074218c-6.460938 0-12.1875 4.128906-14.238282 10.253906-2.035156 6.136719.074219 12.875 5.246094 16.757813 2.957032 2.210937 6.386719 6.0625 10.605469 10.589843 17.621094 18.925782 48.851563 52.484376 99.59375 52.484376 5.8125 0 11.894531-.4375 18.234375-1.390626zm0 0" fill="#a8d32a"/><path d="m22.207031 213.582031c-5.449219-2.738281-12.085937-1.859375-16.671875 2.210938-4.585937 4.074219-6.226562 10.53125-4.144531 16.304687 5.199219 14.429688 8.378906 30.378906 11.4375 45.820313 7.839844 39.402343 16.730469 84.082031 64.953125 84.082031l4.425781-118.417969zm0 0" fill="#a8d32a"/><path d="m413.40625 125.296875c-4.601562-3.691406-10.867188-4.308594-16.097656-1.714844l-67.382813 33.691407c-7.414062 3.703124-10.417969 12.714843-6.710937 20.125l55.269531 61.730468c1.214844.308594 2.445313.453125 3.648437.453125 6.722657 0 12.832032-4.539062 14.53125-11.367187l21.898438-87.582032c1.421875-5.683593-.585938-11.675781-5.15625-15.335937zm0 0" fill="#93bf00"/><path d="m473.964844 215.765625c-4.628906-4.058594-11.207032-4.9375-16.65625-2.183594l-66.839844 33.414063 12.742188 115.003906c46.390624 0 55.109374-43.390625 62.796874-81.664062 3.210938-16.011719 6.535157-32.566407 12.144532-48.3125 2.050781-5.757813.394531-12.203126-4.1875-16.257813zm0 0" fill="#93bf00"/><path d="m463.242188 402.238281c-2.054688-6.109375-7.78125-10.238281-14.226563-10.238281h-65.59375l-52.429687 88.886719c5.800781.804687 11.367187 1.1875 16.746093 1.1875 50.960938-.015625 82.320313-33.734375 99.929688-52.691407 4.144531-4.453124 7.5-8.230468 10.371093-10.398437 5.15625-3.882813 7.253907-10.625 5.203126-16.746094zm0 0" fill="#93bf00"/><path d="m240.496094 122c-99.300782 0-180 87.597656-180 195 0 107.398438 80.699218 195 180 195 99.300781 0 180-87.601562 180-195 0-107.402344-80.699219-195-180-195zm0 0" fill="#ff6c6c"/><path d="m420.496094 317c0 107.398438-80.699219 195-180 195v-390c99.300781 0 180 87.597656 180 195zm0 0" fill="#ff4949"/><path d="m320.296875 217.097656c-.300781-.601562-.601563-.898437-.902344-1.5l-66.898437-87.597656c-3-3.902344-7.199219-6-12-6-3.601563.300781-9 2.097656-11.699219 5.699219l-75.898437 97.199219c-.300782.300781-.601563.898437-.902344 1.199218-20.398438 25.203125-31.5 57.300782-31.5 90.902344 0 74.398438 53.699218 135 120 135 66.300781 0 120-60.601562 120-135 0-38.101562-14.398438-74.101562-40.199219-99.902344zm0 0" fill="#ececf1"/><path d="m360.496094 317c0 74.398438-53.699219 135-120 135v-330c4.800781 0 9 2.097656 12 6l66.898437 87.597656c.300781.601563.601563.898438.902344 1.5 25.800781 25.800782 40.199219 61.800782 40.199219 99.902344zm0 0" fill="#e2e2e7"/><path d="m195.496094 302c0 8.285156-6.714844 15-15 15s-15-6.714844-15-15 6.714844-15 15-15 15 6.714844 15 15zm0 0" fill="#99503d"/><path d="m255.496094 302c0 8.398438-6.597656 15-15 15s-15-6.601562-15-15c0-8.402344 6.597656-15 15-15s15 6.597656 15 15zm0 0" fill="#99503d"/><path d="m255.496094 392c0 8.398438-6.597656 15-15 15s-15-6.601562-15-15c0-8.402344 6.597656-15 15-15s15 6.597656 15 15zm0 0" fill="#99503d"/><path d="m225.496094 257c0 8.285156-6.714844 15-15 15s-15-6.714844-15-15 6.714844-15 15-15 15 6.714844 15 15zm0 0" fill="#99503d"/><path d="m285.496094 257c0 8.285156-6.714844 15-15 15s-15-6.714844-15-15 6.714844-15 15-15 15 6.714844 15 15zm0 0" fill="#804231"/><path d="m255.496094 212c0 8.398438-6.597656 15-15 15s-15-6.601562-15-15c0-8.402344 6.597656-15 15-15s15 6.597656 15 15zm0 0" fill="#99503d"/><path d="m225.496094 347c0 8.285156-6.714844 15-15 15s-15-6.714844-15-15 6.714844-15 15-15 15 6.714844 15 15zm0 0" fill="#99503d"/><g fill="#804231"><path d="m285.496094 347c0 8.285156-6.714844 15-15 15s-15-6.714844-15-15 6.714844-15 15-15 15 6.714844 15 15zm0 0"/><path d="m315.496094 302c0 8.285156-6.714844 15-15 15s-15-6.714844-15-15 6.714844-15 15-15 15 6.714844 15 15zm0 0"/><path d="m255.496094 392c0 8.398438-6.597656 15-15 15v-30c8.402344 0 15 6.597656 15 15zm0 0"/><path d="m255.496094 302c0 8.398438-6.597656 15-15 15v-30c8.402344 0 15 6.597656 15 15zm0 0"/><path d="m255.496094 212c0 8.398438-6.597656 15-15 15v-30c8.402344 0 15 6.597656 15 15zm0 0"/></g></svg>